<svg id="Layer_1" data-name="Layer 1" xmlns="http://www.w3.org/2000/svg" width="256" height="256" viewBox="0 0 256 256"><title>users</title><path d="M0,0V256H256V0H0ZM166.93,218.29H27.67V181.37q0-8.83,16.86-15.65,15.25-6.42,20.87-12.84T71,135.22q0-4-3.81-8.83t-5-13.65q-0.4-2-3.61-4.41t-4-11.24a14.85,14.85,0,0,1,.6-4.62,6.69,6.69,0,0,1,1.4-2.61l0.8-.4q-1.2-9.23-2-16.45Q54.56,63,62,52.34T87.47,41.71q18.06,0,25.48,10.64T119.57,73l-2,16.45q2.81,1.61,2.81,7.63-0.8,8.83-4,11.24t-3.61,4.41q-1.2,8.83-5,13.65t-3.81,8.83q0,11.24,5.62,17.66t20.87,12.84q36.52,15.65,36.52,24.88v27.69Zm61.4,0H183.38v-30.1q0-10.84-6-16.25t-30.9-17.86q8-6,8-16.86a11,11,0,0,0-2.61-6.62q-2.61-3.41-3.81-10.23a6.08,6.08,0,0,0-2.81-3.21q-2.41-1.61-2.81-8.43,0-4.82,2.41-6-1.2-6.82-1.61-12Q142.45,83,147.87,75t19.06-8q13.65,0,19.26,8T191,90.67l-1.61,12q2.41,1.2,2.41,6-0.4,6.82-2.81,8.43a6.08,6.08,0,0,0-2.81,3.21q-1.2,6.82-3.81,10.23a11,11,0,0,0-2.61,6.62q0,8.43,4.21,13.24t15.45,9.63q22.47,9.23,26.09,16.05,1.2,1.61,1.81,12.24t1,20.27v9.63Z" fill="#409388"/><path id="icon" d="M130.41,165.72q36.52,15.65,36.52,24.88v27.69H27.67V181.37q0-8.83,16.86-15.65,15.25-6.42,20.87-12.84T71,135.22q0-4-3.81-8.83t-5-13.65q-0.4-2-3.61-4.41t-4-11.24a14.85,14.85,0,0,1,.6-4.62,6.69,6.69,0,0,1,1.4-2.61l0.8-.4q-1.2-9.23-2-16.45Q54.56,63,62,52.34T87.47,41.71q18.06,0,25.48,10.64T119.57,73l-2,16.45q2.81,1.61,2.81,7.63-0.8,8.83-4,11.24t-3.61,4.41q-1.2,8.83-5,13.65t-3.81,8.83q0,11.24,5.62,17.66T130.41,165.72Zm97.93,52.57H183.38v-30.1q0-10.84-6-16.25t-30.9-17.86q8-6,8-16.86a11,11,0,0,0-2.61-6.62q-2.61-3.41-3.81-10.23a6.08,6.08,0,0,0-2.81-3.21q-2.41-1.61-2.81-8.43,0-4.82,2.41-6-1.2-6.82-1.61-12Q142.45,83,147.87,75t19.06-8q13.65,0,19.26,8T191,90.67l-1.61,12q2.41,1.2,2.41,6-0.4,6.82-2.81,8.43a6.08,6.08,0,0,0-2.81,3.21q-1.2,6.82-3.81,10.23a11,11,0,0,0-2.61,6.62q0,8.43,4.21,13.24t15.45,9.63q22.47,9.23,26.09,16.05,1.2,1.61,1.81,12.24t1,20.27v9.63Z" fill="#1a7566" fill-rule="evenodd"/></svg>